HIERARCHY
ROOT Haolin_V1:Solving:Hips
{
	OFFSET 0.000000 0.000000 0.000000
	CHANNELS 6 Xposition Yposition Zposition Xrotation Yrotation Zrotation
	JOINT Haolin_V1:Solving:Spine
	{
		OFFSET 0.000000 -12.731938 2.520517
		CHANNELS 6 Xposition Yposition Zposition Xrotation Yrotation Zrotation
		JOINT Haolin_V1:Solving:Spine1
		{
			OFFSET 0.000000 -8.486854 1.496462
			CHANNELS 6 Xposition Yposition Zposition Xrotation Yrotation Zrotation
			JOINT Haolin_V1:Solving:Spine2
			{
				OFFSET 0.000000 -8.584984 0.751091
				CHANNELS 6 Xposition Yposition Zposition Xrotation Yrotation Zrotation
				JOINT Haolin_V1:Solving:Spine3
				{
					OFFSET 0.000000 -8.617775 0.000000
					CHANNELS 6 Xposition Yposition Zposition Xrotation Yrotation Zrotation
					JOINT Haolin_V1:Solving:Neck
					{
						OFFSET 0.000000 -11.080002 -1.107998
						CHANNELS 6 Xposition Yposition Zposition Xrotation Yrotation Zrotation
						JOINT Haolin_V1:Solving:Neck1
						{
							OFFSET 0.000000 -8.314011 -0.727381
							CHANNELS 6 Xposition Yposition Zposition Xrotation Yrotation Zrotation
							JOINT Haolin_V1:Solving:Head
							{
								OFFSET 0.000000 -8.218975 -1.449226
								CHANNELS 6 Xposition Yposition Zposition Xrotation Yrotation Zrotation
								JOINT Haolin_V1:Solving:HeadEnd
								{
									OFFSET 0.000000 -9.728081 0.000002
									CHANNELS 6 Xposition Yposition Zposition Xrotation Yrotation Zrotation
									End Site
									{
										OFFSET 0.000000 -9.728081 0.000002
									}
								}
							}
						}
					}
					JOINT Haolin_V1:Solving:RightShoulder
					{
						OFFSET 0.000000 -7.914288 -5.288076
						CHANNELS 6 Xposition Yposition Zposition Xrotation Yrotation Zrotation
						JOINT Haolin_V1:Solving:RightArm
						{
							OFFSET -20.201836 -0.000008 0.000000
							CHANNELS 6 Xposition Yposition Zposition Xrotation Yrotation Zrotation
							JOINT Haolin_V1:Solving:RightForeArm
							{
								OFFSET -29.446457 -0.000008 0.000000
								CHANNELS 6 Xposition Yposition Zposition Xrotation Yrotation Zrotation
								JOINT Haolin_V1:Solving:RightHand
								{
									OFFSET -23.111885 -0.000008 0.000000
									CHANNELS 6 Xposition Yposition Zposition Xrotation Yrotation Zrotation
									JOINT Haolin_V1:Solving:RightHandThumb1
									{
										OFFSET -3.824379 2.925484 -2.843767
										CHANNELS 6 Xposition Yposition Zposition Xrotation Yrotation Zrotation
										End Site
										{
											OFFSET -5.557076 0.000000 -5.608460
										}
									}
									JOINT Haolin_V1:Solving:RightHandMiddle1
									{
										OFFSET -10.198334 -0.000004 0.065374
										CHANNELS 6 Xposition Yposition Zposition Xrotation Yrotation Zrotation
										End Site
										{
											OFFSET -7.895309 -0.000004 0.000000
										}
									}
								}
							}
						}
					}
					JOINT Haolin_V1:Solving:LeftShoulder
					{
						OFFSET 0.000000 -7.914288 -5.288076
						CHANNELS 6 Xposition Yposition Zposition Xrotation Yrotation Zrotation
						JOINT Haolin_V1:Solving:LeftArm
						{
							OFFSET 20.201836 -0.000008 0.000000
							CHANNELS 6 Xposition Yposition Zposition Xrotation Yrotation Zrotation
							JOINT Haolin_V1:Solving:LeftForeArm
							{
								OFFSET 29.446457 -0.000008 0.000000
								CHANNELS 6 Xposition Yposition Zposition Xrotation Yrotation Zrotation
								JOINT Haolin_V1:Solving:LeftHand
								{
									OFFSET 23.111885 -0.000008 0.000000
									CHANNELS 6 Xposition Yposition Zposition Xrotation Yrotation Zrotation
									JOINT Haolin_V1:Solving:LeftHandThumb1
									{
										OFFSET 3.824379 2.925484 -2.843767
										CHANNELS 6 Xposition Yposition Zposition Xrotation Yrotation Zrotation
										End Site
										{
											OFFSET 5.557076 0.000000 -5.608460
										}
									}
									JOINT Haolin_V1:Solving:LeftHandMiddle1
									{
										OFFSET 10.198334 -0.000004 0.065374
										CHANNELS 6 Xposition Yposition Zposition Xrotation Yrotation Zrotation
										End Site
										{
											OFFSET 7.895309 -0.000004 0.000000
										}
									}
								}
							}
						}
					}
				}
			}
		}
	}
	JOINT Haolin_V1:Solving:RightUpLeg
	{
		OFFSET -10.695510 0.000000 0.000000
		CHANNELS 6 Xposition Yposition Zposition Xrotation Yrotation Zrotation
		JOINT Haolin_V1:Solving:RightLeg
		{
			OFFSET 0.000000 46.236332 -0.000006
			CHANNELS 6 Xposition Yposition Zposition Xrotation Yrotation Zrotation
			JOINT Haolin_V1:Solving:RightFoot
			{
				OFFSET 0.000000 41.248135 -0.000006
				CHANNELS 6 Xposition Yposition Zposition Xrotation Yrotation Zrotation
				JOINT Haolin_V1:Solving:RightForeFoot
				{
					OFFSET 0.000000 3.207336 -0.000000
					CHANNELS 6 Xposition Yposition Zposition Xrotation Yrotation Zrotation
					JOINT Haolin_V1:Solving:RightToeBase
					{
						OFFSET 0.000000 0.000000 -12.560947
						CHANNELS 6 Xposition Yposition Zposition Xrotation Yrotation Zrotation
						JOINT Haolin_V1:Solving:RightToeBaseEnd
						{
							OFFSET 0.000000 0.000000 -3.517768
							CHANNELS 6 Xposition Yposition Zposition Xrotation Yrotation Zrotation
							End Site
							{
								OFFSET 0.000000 -3.517769 0.000004
							}
						}
					}
				}
			}
		}
	}
	JOINT Haolin_V1:Solving:LeftUpLeg
	{
		OFFSET 10.695510 0.000000 0.000000
		CHANNELS 6 Xposition Yposition Zposition Xrotation Yrotation Zrotation
		JOINT Haolin_V1:Solving:LeftLeg
		{
			OFFSET 0.000000 46.236332 -0.000006
			CHANNELS 6 Xposition Yposition Zposition Xrotation Yrotation Zrotation
			JOINT Haolin_V1:Solving:LeftFoot
			{
				OFFSET 0.000000 41.248135 -0.000006
				CHANNELS 6 Xposition Yposition Zposition Xrotation Yrotation Zrotation
				JOINT Haolin_V1:Solving:LeftForeFoot
				{
					OFFSET 0.000000 3.207336 -0.000000
					CHANNELS 6 Xposition Yposition Zposition Xrotation Yrotation Zrotation
					JOINT Haolin_V1:Solving:LeftToeBase
					{
						OFFSET 0.000000 0.000000 -12.560947
						CHANNELS 6 Xposition Yposition Zposition Xrotation Yrotation Zrotation
						JOINT Haolin_V1:Solving:LeftToeBaseEnd
						{
							OFFSET 0.000000 0.000000 -3.901837
							CHANNELS 6 Xposition Yposition Zposition Xrotation Yrotation Zrotation
							End Site
							{
								OFFSET 0.000000 -3.901840 0.000004
							}
						}
					}
				}
			}
		}
	}
}
MOTION
Frames: 6
Frame Time: 0.041667
-5.609110 -102.372162 -94.203583 86.102055 3.260779 -0.961710 0.000002 -12.731930 2.520499 13.188837 -0.903460 -2.632869 0.000003 -8.486856 1.496441 0.654285 -0.094637 0.256160 -0.000002 -8.584970 0.751105 -5.383559 -0.275658 0.988631 -0.000001 -8.617786 -0.000004 -3.348827 -0.264135 1.262506 -0.000001 -11.079976 -1.108014 2.601729 -2.954051 -1.264699 -0.000001 -8.313993 -0.727390 3.083197 -8.714945 -1.057641 -0.000001 -8.218953 -1.449221 10.200622 -0.524642 -0.840305 -0.000000 -9.728073 -0.000025 0.000002 0.000000 -0.000001 0.000002 -7.914257 -5.288104 -0.000011 19.289895 13.439606 -20.201818 -0.000006 0.000005 -5.675789 -50.477748 -92.343878 -29.446457 -0.000008 -0.000005 20.035014 -20.947529 7.427780 -23.111887 -0.000011 0.000011 -0.064403 -0.764862 -4.813217 -3.824388 2.925471 -2.843764 0.000010 0.000007 -0.000002 -10.198336 -0.000028 0.065369 0.000009 0.000000 -0.000002 0.000000 -7.914261 -5.288104 -0.000009 -15.762898 -14.105469 20.201832 0.000016 -0.000006 -10.240477 16.147380 86.602905 29.446474 -0.000010 0.000017 113.781765 -2.497278 -5.646800 23.111885 0.000001 0.000001 -179.234368 10.893195 -4.044897 3.824356 2.925495 -2.843779 0.000010 -0.000002 -0.000001 10.198297 -0.000003 0.065361 0.000000 -0.000004 0.000001 -10.695509 0.000012 -0.000008 6.283470 11.332172 -2.748979 -0.000011 46.236332 -0.000019 8.604454 -0.000000 0.000001 -0.000006 41.248142 0.000005 -11.003267 -7.954959 -3.791654 -0.000000 3.207337 0.000003 0.000000 -0.000000 0.000000 -0.000004 -0.000005 -12.560951 10.499734 -0.000001 -0.000001 -0.000001 0.000008 -3.517762 0.000000 0.000001 0.000000 10.695510 -0.000002 -0.000011 -6.488939 -6.700677 -2.773769 -0.000001 46.236347 -0.000003 26.995903 -0.000000 0.000002 -0.000006 41.248142 -0.000033 -13.862127 -24.326912 -13.301326 0.000003 3.207321 -0.000018 0.000001 -0.000001 0.000002 0.000002 0.000024 -12.560959 6.532627 -0.000003 0.000003 0.000001 0.000007 -3.901824 -0.000002 -0.000001 -0.000000 
-5.737310 -102.214249 -94.222000 86.089801 3.608975 -0.909032 0.000000 -12.731928 2.520534 13.351072 -0.956862 -2.662849 0.000002 -8.486848 1.496483 0.636046 -0.098403 0.253256 0.000000 -8.584999 0.751095 -5.414454 -0.403544 0.952156 0.000000 -8.617782 0.000005 -3.230751 -0.289671 1.169016 -0.000001 -11.079967 -1.108023 3.212051 -2.140821 -1.339098 0.000002 -8.314033 -0.727395 3.104629 -6.886614 -0.900361 -0.000003 -8.218988 -1.449192 10.245273 -0.433724 -0.767734 -0.000002 -9.728058 -0.000016 0.000003 0.000001 -0.000000 -0.000002 -7.914265 -5.288101 -0.000011 19.483232 13.495299 -20.201828 0.000005 -0.000008 -6.151232 -51.450613 -92.653353 -29.446447 -0.000009 -0.000011 20.330326 -21.323980 7.673400 -23.111847 -0.000028 -0.000008 -0.068526 -0.891577 -4.395539 -3.824387 2.925472 -2.843766 0.000009 -0.000003 -0.000001 -10.198357 -0.000016 0.065363 0.000004 0.000000 0.000000 -0.000002 -7.914268 -5.288100 -0.000007 -15.970840 -13.787797 20.201817 0.000008 -0.000001 -10.282346 18.109948 87.000552 29.446474 -0.000016 0.000005 113.656964 -2.589496 -5.888245 23.111887 -0.000024 0.000011 -179.122954 11.410681 -4.424564 3.824399 2.925488 -2.843774 0.000009 0.000009 0.000006 10.198322 -0.000002 0.065360 0.000006 0.000004 0.000004 -10.695508 0.000013 0.000014 6.302925 11.211318 -2.809708 -0.000009 46.236332 -0.000008 8.782138 -0.000004 0.000001 0.000007 41.248138 0.000027 -10.911728 -8.139512 -3.634279 -0.000003 3.207329 -0.000003 -0.000000 -0.000002 0.000001 -0.000001 0.000007 -12.560938 10.257050 -0.000001 0.000000 0.000001 0.000000 -3.517780 0.000000 0.000001 -0.000001 10.695509 0.000000 0.000007 -6.849352 -6.720963 -2.689369 -0.000001 46.236355 -0.000033 27.564526 0.000001 0.000002 -0.000008 41.248142 -0.000023 -13.945913 -24.236192 -13.554691 0.000014 3.207329 -0.000014 -0.000001 -0.000001 -0.000001 -0.000002 -0.000008 -12.560977 6.153334 0.000002 -0.000000 -0.000015 -0.000015 -3.901848 -0.000002 -0.000003 0.000002 
-5.831719 -102.051559 -94.237991 86.028036 3.999400 -1.020048 0.000001 -12.731931 2.520488 13.460442 -0.980595 -2.533329 -0.000001 -8.486836 1.496477 0.658825 -0.104294 0.258491 0.000000 -8.585008 0.751097 -5.404569 -0.526582 0.937036 -0.000001 -8.617773 0.000015 -3.149638 -0.311796 1.139706 -0.000000 -11.079988 -1.108001 3.437693 -2.080384 -1.307840 0.000002 -8.313992 -0.727386 3.116091 -6.619755 -0.866386 0.000001 -8.218968 -1.449234 10.176242 -0.438775 -0.741644 -0.000000 -9.728088 0.000001 0.000002 0.000002 -0.000000 -0.000001 -7.914230 -5.288069 -0.000012 19.485613 13.509990 -20.201820 0.000006 -0.000028 -6.512078 -52.144051 -92.946491 -29.446459 -0.000012 0.000001 20.266382 -21.750290 7.791211 -23.111870 -0.000024 -0.000006 -0.056922 -0.823320 -3.955310 -3.824393 2.925471 -2.843751 0.000011 -0.000003 0.000001 -10.198321 0.000002 0.065377 -0.000003 -0.000001 0.000006 -0.000001 -7.914230 -5.288069 -0.000010 -16.051424 -13.585725 20.201826 -0.000021 0.000011 -10.455145 18.407918 87.497640 29.446461 -0.000018 -0.000005 114.841039 -2.724695 -5.862902 23.111889 -0.000021 0.000004 -179.109239 11.652106 -4.402033 3.824363 2.925476 -2.843766 0.000013 0.000009 -0.000000 10.198310 -0.000014 0.065377 0.000007 0.000006 -0.000002 -10.695511 0.000001 -0.000017 6.351825 10.967328 -2.680885 0.000004 46.236343 0.000009 8.897470 0.000002 0.000000 -0.000003 41.248131 0.000026 -10.892068 -8.212609 -3.597785 0.000002 3.207337 -0.000022 -0.000000 0.000000 -0.000000 0.000004 0.000008 -12.560973 11.184724 0.000001 0.000000 0.000003 0.000015 -3.517750 -0.000001 -0.000000 -0.000001 10.695513 0.000009 -0.000023 -7.189385 -6.719322 -2.418049 -0.000002 46.236366 -0.000035 28.233608 0.000001 0.000002 -0.000004 41.248142 -0.000014 -13.980549 -23.882429 -13.606553 -0.000001 3.207330 -0.000010 -0.000001 -0.000000 0.000000 0.000008 0.000014 -12.560965 6.805738 0.000001 0.000001 0.000002 -0.000000 -3.901830 0.000000 -0.000001 -0.000003 
-5.917928 -101.884903 -94.215935 85.898761 4.406786 -1.165110 0.000002 -12.731934 2.520498 13.461641 -0.981000 -2.360632 0.000001 -8.486831 1.496454 0.721068 -0.109528 0.266010 -0.000002 -8.584990 0.751101 -5.320611 -0.680946 0.930211 -0.000001 -8.617757 -0.000011 -3.176750 -0.345412 1.130699 -0.000002 -11.079959 -1.107999 2.982353 -3.070598 -1.279699 0.000002 -8.314013 -0.727378 2.995756 -8.570882 -1.011876 0.000003 -8.218962 -1.449227 10.014177 -0.534951 -0.765013 -0.000002 -9.728073 -0.000023 0.000002 0.000001 -0.000000 -0.000004 -7.914265 -5.288063 -0.000009 19.205817 13.637502 -20.201826 0.000024 -0.000002 -6.734225 -52.429697 -93.331885 -29.446468 -0.000011 -0.000003 19.852486 -22.182766 7.762736 -23.111864 -0.000020 -0.000002 -0.036883 -0.602685 -3.502492 -3.824391 2.925464 -2.843760 0.000009 -0.000007 0.000004 -10.198340 -0.000005 0.065388 0.000004 -0.000005 0.000001 -0.000002 -7.914265 -5.288071 -0.000005 -15.843001 -13.641748 20.201824 0.000014 0.000007 -10.285479 19.000215 88.025846 29.446474 -0.000009 0.000005 115.503854 -2.955089 -6.167704 23.111870 0.000007 0.000012 -179.152256 11.487776 -4.249079 3.824391 2.925464 -2.843750 0.000000 0.000002 -0.000004 10.198331 -0.000034 0.065388 -0.000006 -0.000002 -0.000004 -10.695505 -0.000002 -0.000003 6.443033 10.956846 -2.485599 0.000004 46.236309 -0.000030 9.044727 -0.000002 -0.000001 -0.000002 41.248131 0.000013 -11.125874 -8.462853 -3.489160 -0.000001 3.207336 0.000012 0.000000 0.000000 0.000000 0.000000 -0.000025 -12.560935 10.505518 -0.000000 0.000001 -0.000005 0.000008 -3.517771 0.000000 0.000001 -0.000001 10.695511 0.000012 -0.000025 -7.440312 -6.708253 -2.085619 -0.000003 46.236347 -0.000022 28.825642 0.000000 0.000002 -0.000002 41.248150 -0.000005 -14.092159 -23.573515 -13.503602 0.000003 3.207329 -0.000016 0.000000 0.000001 0.000000 -0.000002 0.000007 -12.560953 6.868936 -0.000002 0.000002 0.000001 0.000000 -3.901845 0.000001 -0.000002 -0.000001 
-5.992200 -101.730988 -94.213516 85.850342 4.765468 -1.268690 -0.000000 -12.731936 2.520528 13.474576 -1.018664 -2.273610 -0.000000 -8.486863 1.496461 0.748955 -0.114175 0.260720 0.000000 -8.584989 0.751067 -5.280307 -0.784551 0.936012 -0.000001 -8.617787 0.000018 -3.153107 -0.357828 1.137688 0.000002 -11.080035 -1.108024 2.866173 -3.407591 -1.281330 0.000001 -8.313980 -0.727378 2.935397 -9.137027 -1.076694 -0.000006 -8.218969 -1.449247 9.900535 -0.561146 -0.795107 -0.000002 -9.728096 -0.000033 0.000005 0.000001 -0.000001 0.000002 -7.914314 -5.288098 -0.000012 19.069994 13.731627 -20.201832 0.000018 -0.000004 -7.034075 -52.738244 -93.643656 -29.446470 -0.000011 0.000005 19.192647 -22.586927 7.615054 -23.111881 -0.000017 0.000014 -0.013189 -0.245414 -3.077277 -3.824407 2.925470 -2.843748 0.000007 -0.000007 0.000003 -10.198324 -0.000016 0.065382 0.000008 -0.000005 0.000003 0.000003 -7.914314 -5.288098 -0.000008 -15.772829 -13.603919 20.201824 -0.000042 -0.000008 -10.159570 20.071865 88.456564 29.446453 -0.000021 0.000005 115.768783 -3.188835 -6.573175 23.111868 0.000020 0.000016 -179.206788 11.295919 -4.043157 3.824364 2.925479 -2.843776 0.000005 0.000009 0.000001 10.198331 -0.000022 0.065373 -0.000003 -0.000000 -0.000004 -10.695513 0.000019 0.000015 6.440548 11.046135 -2.327806 -0.000016 46.236313 -0.000026 9.263982 -0.000003 0.000001 -0.000011 41.248131 -0.000001 -11.263340 -8.795556 -3.535405 0.000002 3.207336 -0.000014 -0.000000 0.000000 -0.000001 0.000005 -0.000002 -12.560952 10.260407 -0.000000 -0.000002 0.000001 0.000001 -3.517759 0.000002 -0.000001 -0.000002 10.695512 0.000005 0.000001 -7.775588 -6.602042 -1.775966 0.000000 46.236359 -0.000023 29.341308 -0.000000 0.000002 -0.000006 41.248135 0.000007 -14.232263 -23.267678 -13.304038 0.000015 3.207329 0.000008 -0.000001 -0.000001 -0.000001 0.000002 -0.000002 -12.560956 7.126496 -0.000005 0.000001 -0.000002 -0.000007 -3.901820 0.000003 0.000001 -0.000001 
-6.082157 -101.581985 -94.217606 85.827501 5.133793 -1.308912 -0.000002 -12.731947 2.520541 13.506310 -1.044153 -2.257946 0.000001 -8.486856 1.496447 0.782284 -0.118475 0.254988 -0.000002 -8.584968 0.751081 -5.276952 -0.924442 0.933730 -0.000000 -8.617761 0.000014 -3.133694 -0.387425 1.122766 -0.000003 -11.079961 -1.107997 2.919787 -3.355605 -1.340781 -0.000001 -8.314002 -0.727390 2.946692 -8.941209 -1.027490 0.000001 -8.218987 -1.449245 9.846481 -0.551989 -0.759349 0.000001 -9.728081 0.000012 0.000005 -0.000000 0.000000 0.000001 -7.914272 -5.288095 -0.000011 19.014331 13.830280 -20.201864 0.000024 0.000011 -7.342841 -53.016116 -93.910313 -29.446440 -0.000021 -0.000002 18.698521 -22.896592 7.501563 -23.111881 -0.000014 -0.000003 -0.000885 -0.019640 -2.574136 -3.824380 2.925473 -2.843741 0.000006 -0.000000 -0.000002 -10.198342 -0.000015 0.065394 0.000007 0.000000 -0.000001 -0.000001 -7.914272 -5.288095 -0.000006 -15.643259 -13.343150 20.201820 -0.000013 0.000005 -9.812772 20.583593 88.721835 29.446461 -0.000004 -0.000015 116.887896 -3.705315 -7.263110 23.111881 -0.000000 0.000012 -179.118924 11.383292 -4.455337 3.824393 2.925487 -2.843755 0.000007 -0.000002 -0.000001 10.198338 -0.000001 0.065361 -0.000000 0.000002 -0.000004 -10.695511 -0.000012 0.000012 6.403534 11.072515 -2.244025 -0.000009 46.236328 -0.000005 9.531581 -0.000001 0.000000 -0.000013 41.248131 0.000021 -11.305756 -9.092938 -3.614094 0.000003 3.207329 -0.000008 0.000000 -0.000000 -0.000000 0.000002 -0.000015 -12.560955 10.474950 -0.000001 0.000001 -0.000001 0.000008 -3.517765 0.000000 0.000000 -0.000001 10.695511 -0.000033 0.000010 -8.118387 -6.481911 -1.524693 0.000000 46.236336 0.000017 29.703256 -0.000000 0.000002 -0.000003 41.248131 -0.000009 -14.229953 -23.052886 -13.192066 0.000008 3.207329 0.000002 0.000000 0.000001 -0.000000 -0.000009 -0.000004 -12.560962 6.610826 0.000006 -0.000000 -0.000001 -0.000008 -3.901850 0.000001 0.000001 -0.000002 
